<?xml version="1.0" ?>

<!-- Uploaded to: SVG Repo, www.svgrepo.com, Generator: SVG Repo Mixer Tools -->
<svg width="800px" height="800px" viewBox="0 0 100 100" data-name="Layer 1" id="Layer_1" xmlns="http://www.w3.org/2000/svg">

<defs>

<style>
      .cls-1 {
        fill: none;
        stroke: #231f20;
        stroke-miterlimit: 10;
        stroke-width: 2px;
      }

      .cls-2 {
        fill: #231f20;
      }
    </style>

</defs>

<path class="cls-2" d="M65.66,40.31c-4.3,0-4.8,.5-4.8,4.8,0-4.3-.5-4.8-4.8-4.8,4.3,0,4.8-.5,4.8-4.8,0,4.3,.5,4.8,4.8,4.8Z"/>

<path class="cls-2" d="M42.91,59.09c-3.23,0-3.61,.38-3.61,3.61,0-3.23-.38-3.61-3.61-3.61,3.23,0,3.61-.38,3.61-3.61,0,3.23,.38,3.61,3.61,3.61Z"/>

<path class="cls-2" d="M46.85,65.87c-2.04,0-2.28,.24-2.28,2.28,0-2.04-.24-2.28-2.28-2.28,2.04,0,2.28-.24,2.28-2.28,0,2.04,.24,2.28,2.28,2.28Z"/>

<path class="cls-1" d="M30.16,17.68h42.51c1.57,0,2.85,1.28,2.85,2.85h0c0,1.57-1.28,2.85-2.85,2.85H29.32c-1.57,0-2.85-1.28-2.85-2.85h0c0-1.57,1.28-2.85,2.85-2.85"/>

<rect class="cls-1" height="5.7" rx="2.17" ry="2.17" width="49.05" x="26.47" y="77.81"/>

<polyline class="cls-1" points="72.87 62.78 72.87 77.81 29.11 77.81 29.11 23.38 72.87 23.38 72.87 61.72"/>

<g>

<rect class="cls-1" height="18.38" width="15.54" x="33.53" y="30.04"/>

<rect class="cls-1" height="18.38" width="15.54" x="53.09" y="30.04"/>

<rect class="cls-1" height="18.38" width="15.54" x="33.36" y="52.77"/>

<rect class="cls-1" height="18.38" width="15.54" x="52.92" y="52.77"/>

</g>

<g>

<line class="cls-1" x1="39.75" x2="36.63" y1="33.36" y2="36.72"/>

<line class="cls-1" x1="46.13" x2="43.02" y1="42.42" y2="45.77"/>

<line class="cls-1" x1="45.36" x2="36.82" y1="34.13" y2="43.91"/>

</g>

<g>

<line class="cls-1" x1="59.05" x2="55.94" y1="55.75" y2="59.11"/>

<line class="cls-1" x1="65.44" x2="62.32" y1="64.81" y2="68.17"/>

<line class="cls-1" x1="64.66" x2="56.13" y1="56.52" y2="66.3"/>

</g>

</svg>